<svg xmlns="http://www.w3.org/2000/svg" viewBox="0 0 302.52 56.69">   
   <title>caps28-logo</title>
   <rect style="fill:#56574f;" width="61.68" height="56.69" rx="8.5"/>
   <path style="fill:#fff;stroke:#141414;stroke-miterlimit:10;" d="M274.48,291.65a17.79,17.79,0,0,1,5.45-13.47,13,13,0,0,1,3.25-2.39,20,20,0,0,1,7.71-1.92c1.82-.11,2.65.53,2.86,2.34.7,6,3.22,11.45,5.64,16.9a10.54,10.54,0,0,1,.73,2.18,2.31,2.31,0,0,1-1.73,2.93,8.05,8.05,0,0,1-3.32.35,18.68,18.68,0,0,0-10.24,1.14,15.62,15.62,0,0,1-5,1.14c-2.92.13-4.21-1.09-4.68-4C274.9,295.15,274.71,293.4,274.48,291.65Z" transform="translate(-269.69 -269.29)"/>
   <path style="fill:#fff;stroke:#141414;stroke-miterlimit:10;" d="M294.9,321.3a18.77,18.77,0,0,1-15.55-7.58,19.41,19.41,0,0,1-3.9-11.23c-.06-1.23.47-1.77,1.5-1.41,2.66.92,5.12.17,7.5-.84a16.59,16.59,0,0,1,9-1.25,11.69,11.69,0,0,0,5.21-.52c2.78-.86,3.47-.26,2.81,2.6-.78,3.37-.32,6.63.25,9.94a43.28,43.28,0,0,1,.71,6.71c0,2.2-.69,2.84-2.9,3.11C297.88,321,296.21,321.17,294.9,321.3Z" transform="translate(-269.69 -269.29)"/>
   <path style="fill:#fff;stroke:#141414;stroke-miterlimit:10;" d="M301.57,306.09a7.61,7.61,0,0,1,4.17-7.75c2.8-1.6,5.64-2.16,8.67-.83,2.44,1.06,4.88,2.14,7.27,3.3s2.93,2.52,2.52,5.1a13.46,13.46,0,0,1-4.47,7.86c-4,3.67-8.86,5.5-14.13,6.35-1.38.22-2.09-.46-2.27-1.85-.36-2.73-.76-5.45-1.16-8.17C302,308.76,301.77,307.43,301.57,306.09Z" transform="translate(-269.69 -269.29)"/>
   <path style="fill:#fff;stroke:#141414;stroke-miterlimit:10;" d="M299.88,273.81a26.72,26.72,0,0,1,8.79,1.33,24.57,24.57,0,0,1,3.65,1.77c1.85,1.11,2.4,2.38,1.79,4.48-.93,3.21-1.94,6.4-3.07,9.53a23.51,23.51,0,0,1-2.22,4.32,5.72,5.72,0,0,1-3.46,2.45c-1.82.51-3.12.06-4-1.64-1.26-2.49-2.44-5-3.49-7.61a70.42,70.42,0,0,1-2.35-6.92,27.42,27.42,0,0,1-.73-4.53,3.09,3.09,0,0,1,2.91-3.16A17.28,17.28,0,0,1,299.88,273.81Z" transform="translate(-269.69 -269.29)"/>
   <path style="fill:#fff;stroke:#141414;stroke-miterlimit:10;" d="M326.57,294.26c-.18,1.52-.29,3.06-.57,4.57-.33,1.84-1.72,2.43-3.46,1.7q-5.37-2.26-10.79-4.43c-1.21-.49-1.48-.91-1-2.31.71-2.25,1.48-4.47,2.2-6.7.46-1.42.87-2.86,1.33-4.28a10.29,10.29,0,0,1,.71-1.76c1-1.87,2.05-2.1,3.84-.91a20.37,20.37,0,0,1,5.83,6.15C326.19,288.73,326.48,291.45,326.57,294.26Z" transform="translate(-269.69 -269.29)"/>
   <path style="fill:#fff;" d="M346.16,289.1a17,17,0,0,1,.76-5.1,7.76,7.76,0,0,1,1-2.36,20.58,20.58,0,0,1,1.35-1.8,13.72,13.72,0,0,1,4.67-3.53,13.52,13.52,0,0,1,5.79-1.26h16.7a.56.56,0,0,1,.63.63v6.93a.56.56,0,0,1-.63.63H360.15a5.24,5.24,0,0,0-3.65,2.55,10.46,10.46,0,0,0-1.2,5.33v15.94a5.53,5.53,0,0,0,1.42,3.49,5.12,5.12,0,0,0,3.43,1.48h16.32a.56.56,0,0,1,.63.63v6.93a.56.56,0,0,1-.63.63H360.34a14.55,14.55,0,0,1-3.34-.34,17.17,17.17,0,0,1-2.52-.79,11.16,11.16,0,0,1-4.28-2.87,16,16,0,0,1-3.09-4.75,12.78,12.78,0,0,1-.63-1.86,11.14,11.14,0,0,1-.32-2.87Z" transform="translate(-269.69 -269.29)"/>
   <path style="fill:#fff;" d="M393.79,278.77a4.24,4.24,0,0,1,2.77-3.09,19.06,19.06,0,0,1,5.48-.63,19.91,19.91,0,0,1,5.64.63,4.25,4.25,0,0,1,2.81,3.09l12.66,41.08c0,.25-.15.37-.44.37h-8.26a.77.77,0,0,1-.81-.56l-3.34-10.9a.79.79,0,0,0-.82-.63H394.67a.81.81,0,0,0-.82.69l-3.34,10.77a.78.78,0,0,1-.81.63h-8.19c-.34,0-.51-.12-.51-.37Zm9,5.61a4.43,4.43,0,0,0-.32-.92.47.47,0,0,0-.44-.22q-.32,0-.69,1.14l-4.41,14.36a.47.47,0,0,1,0,.19.28.28,0,0,0,0,.13c0,.29.16.44.5.44h9.39c.33,0,.5-.15.5-.44a.28.28,0,0,0,0-.13.47.47,0,0,1,0-.19Z" transform="translate(-269.69 -269.29)"/>
   <path style="fill:#fff;" d="M427.05,275.68a.56.56,0,0,1,.63-.63h20.1a14.7,14.7,0,0,1,6,1.1,10.34,10.34,0,0,1,4,3.06,12.73,12.73,0,0,1,2.2,4.66,24,24,0,0,1,.69,5.92,24.48,24.48,0,0,1-.69,6,12.66,12.66,0,0,1-2.2,4.66,9.75,9.75,0,0,1-4,3,15.45,15.45,0,0,1-6,1h-11a.56.56,0,0,0-.63.63v14.42a.56.56,0,0,1-.63.63h-7.88a.56.56,0,0,1-.63-.63V275.68Zm9.77,7.56a.56.56,0,0,0-.63.63v11.85a.56.56,0,0,0,.63.63h12a2.24,2.24,0,0,0,1.8-.79,5.16,5.16,0,0,0,1-1.86,10.79,10.79,0,0,0,.41-2.17c.07-.74.1-1.32.1-1.74s0-1-.1-1.73a10.79,10.79,0,0,0-.41-2.17,5.08,5.08,0,0,0-1-1.86,2.24,2.24,0,0,0-1.8-.79Z" transform="translate(-269.69 -269.29)"/>
   <path style="fill:#fff;" d="M475.75,301.45a18.91,18.91,0,0,1-4.19-.51A9.88,9.88,0,0,1,467.5,299a8.16,8.16,0,0,1-1.8-2.11,13.72,13.72,0,0,1-1.19-2.64,17.25,17.25,0,0,1-.7-2.9,21,21,0,0,1-.22-2.93v-1.2a5.44,5.44,0,0,1,.13-1.13,11.73,11.73,0,0,1,4.09-8.51,15.58,15.58,0,0,1,2.65-1.7,6.74,6.74,0,0,1,3.09-.82H494.4a.56.56,0,0,1,.63.63v6.93a.56.56,0,0,1-.63.63H476.19a2.17,2.17,0,0,0-1.6.79,6,6,0,0,0-1,1.48,3.57,3.57,0,0,0-.38,1.26q-.06.63-.06,1.26a18.66,18.66,0,0,0,.12,2.08,3.33,3.33,0,0,0,.89,1.89,3.09,3.09,0,0,0,1.92.82q1.23.12,2.67.12h7.06a16.82,16.82,0,0,1,4.1.54,10,10,0,0,1,4,2,7.63,7.63,0,0,1,1.8,2.14,14.75,14.75,0,0,1,1.2,2.71,16.54,16.54,0,0,1,.66,3,26.78,26.78,0,0,1,.19,3v1.32a4.13,4.13,0,0,1-.13,1.07q-.51,5.73-4,8.82a16.3,16.3,0,0,1-2.62,1.73,6,6,0,0,1-2.92.85H465a.56.56,0,0,1-.63-.63v-6.93A.56.56,0,0,1,465,312h20.29a2,2,0,0,0,1.64-.91,8.06,8.06,0,0,0,1-1.67,4.12,4.12,0,0,0,.37-1.32,11.25,11.25,0,0,0,.07-1.33,19.72,19.72,0,0,0-.13-2.11,3.63,3.63,0,0,0-.88-2,3.48,3.48,0,0,0-1.8-1,11.61,11.61,0,0,0-2.74-.28Z" transform="translate(-269.69 -269.29)"/>
   <path style="fill:#ffce34;" d="M532.45,313v6.61a.56.56,0,0,1-.63.63h-29a.56.56,0,0,1-.63-.63V308.13a15.75,15.75,0,0,1,.5-4.26,10.78,10.78,0,0,1,1.33-3,9.35,9.35,0,0,1,1.89-2.11c.71-.58,1.45-1.13,2.2-1.63a12.49,12.49,0,0,1,2.71-1.27c1.09-.37,2.26-.74,3.5-1.1s2.47-.74,3.71-1.16a19.08,19.08,0,0,0,3.34-1.48,8.82,8.82,0,0,0,2.43-2,4.17,4.17,0,0,0,.94-2.77,6.71,6.71,0,0,0-.15-1.26,4.53,4.53,0,0,0-.63-1.48,4.35,4.35,0,0,0-1.26-1.23,3.69,3.69,0,0,0-2-.5H504.1a.56.56,0,0,1-.63-.63v-6.62a.56.56,0,0,1,.63-.63h16.57a12.63,12.63,0,0,1,5.73,1.2,12,12,0,0,1,3.91,3,12.48,12.48,0,0,1,2.24,4,13.16,13.16,0,0,1,.72,4.13,24.81,24.81,0,0,1-.5,5.51,8.07,8.07,0,0,1-1.8,3.56,10.7,10.7,0,0,1-3.49,2.49q-2.21,1-5.61,2.24-1.95.69-3.75,1.26a30.58,30.58,0,0,0-3.15,1.16A7.7,7.7,0,0,0,512.8,305a2.44,2.44,0,0,0-.82,1.89v4.85a.56.56,0,0,0,.63.63h19.21A.56.56,0,0,1,532.45,313Z" transform="translate(-269.69 -269.29)"/>
   <path style="fill:#ffce34;" d="M540,280.34a9.3,9.3,0,0,1,3.72-4A12.64,12.64,0,0,1,549,274.9c2-.15,3.92-.23,5.89-.23s3.94.08,5.89.23a12.64,12.64,0,0,1,5.23,1.48,9.3,9.3,0,0,1,3.72,4,17.15,17.15,0,0,1,1.41,7.75,12.89,12.89,0,0,1-1.16,6,6.34,6.34,0,0,1-2.62,2.9c-.21.12-.31.21-.31.25s.1.17.31.25a7.16,7.16,0,0,1,3.63,3.25,14.3,14.3,0,0,1,1.22,6.7,19.34,19.34,0,0,1-1,6.87,8.21,8.21,0,0,1-3.12,4,13.28,13.28,0,0,1-5.39,1.86,65.12,65.12,0,0,1-15.62,0,13,13,0,0,1-5.36-1.86,8.2,8.2,0,0,1-3.08-4,19.09,19.09,0,0,1-1-6.87,14.75,14.75,0,0,1,1.19-6.7,7,7,0,0,1,3.6-3.25c.21-.08.31-.17.31-.25s-.1-.13-.31-.25a6.64,6.64,0,0,1-2.59-2.9,12.61,12.61,0,0,1-1.19-6A17.15,17.15,0,0,1,540,280.34Zm22.27,23.19a6.3,6.3,0,0,0-1.92-2,7.93,7.93,0,0,0-2.64-1.07,13.83,13.83,0,0,0-2.87-.31,13.62,13.62,0,0,0-2.9.31,7.85,7.85,0,0,0-2.61,1.07,6.3,6.3,0,0,0-1.92,2,5.38,5.38,0,0,0-.76,3,6.71,6.71,0,0,0,.38,2.08,5.57,5.57,0,0,0,1.32,2.11,7.49,7.49,0,0,0,2.52,1.64,12.27,12.27,0,0,0,7.94,0,7.49,7.49,0,0,0,2.52-1.64,5.57,5.57,0,0,0,1.32-2.11,6.71,6.71,0,0,0,.38-2.08A5.38,5.38,0,0,0,562.31,303.53ZM561.65,285a4.36,4.36,0,0,0-1.7-1.42,7.18,7.18,0,0,0-2.39-.66,22.26,22.26,0,0,0-2.68-.16,21.53,21.53,0,0,0-2.65.16,7.13,7.13,0,0,0-2.36.66,4.43,4.43,0,0,0-1.7,1.42,3.9,3.9,0,0,0-.66,2.36V288q0,3.21,2,4.38a10.76,10.76,0,0,0,5.36,1.16,10.94,10.94,0,0,0,5.39-1.16q2-1.17,2-4.38v-.63A3.9,3.9,0,0,0,561.65,285Z" transform="translate(-269.69 -269.29)"/>
</svg>